<svg id="svg" version="1.1" xmlns="http://www.w3.org/2000/svg" xmlns:xlink="http://www.w3.org/1999/xlink" width="400" height="400" viewBox="0, 0, 400,400"><g id="svgg"><path id="path0" d="M131.200 137.085 C 128.385 138.268,127.654 141.817,129.769 144.035 C 130.246 144.534,133.162 145.802,139.888 148.435 C 145.606 150.673,149.386 152.291,149.458 152.533 C 149.524 152.753,152.350 168.053,155.738 186.533 C 159.127 205.013,162.016 220.660,162.159 221.303 C 162.665 223.582,164.219 224.770,166.718 224.789 C 168.749 224.804,168.799 224.306,165.954 232.257 C 163.245 239.828,163.168 240.276,164.318 241.739 C 165.130 242.770,166.367 243.200,168.525 243.200 C 170.641 243.200,170.632 243.192,169.764 244.351 C 162.270 254.350,172.518 268.355,184.350 264.284 C 192.232 261.572,195.628 251.845,191.062 245.060 C 190.551 244.301,190.133 243.572,190.133 243.440 C 190.133 243.301,196.075 243.200,204.267 243.200 C 212.459 243.200,218.400 243.301,218.400 243.440 C 218.400 243.572,217.983 244.300,217.473 245.058 C 213.472 251.003,215.656 259.746,222.033 263.310 C 233.860 269.920,246.616 256.018,239.046 244.769 C 238.544 244.023,238.133 243.365,238.133 243.307 C 238.133 243.248,239.157 243.200,240.409 243.200 C 244.153 243.200,245.600 242.194,245.600 239.592 C 245.600 237.898,244.719 236.758,243.051 236.295 C 242.315 236.090,231.563 236.003,207.133 236.001 C 186.240 236.001,172.267 235.902,172.267 235.756 C 172.267 235.428,175.648 225.992,176.004 225.326 C 176.282 224.807,176.705 224.800,209.753 224.800 C 247.588 224.800,244.694 224.966,245.834 222.730 C 246.445 221.530,264.488 165.332,264.689 164.000 C 264.894 162.642,263.896 160.828,262.533 160.085 C 261.566 159.557,195.309 156.325,177.333 155.928 C 172.630 155.825,170.290 158.568,172.099 162.066 C 173.303 164.394,169.059 164.008,215.145 165.984 C 236.748 166.910,254.485 167.729,254.559 167.804 C 254.768 168.013,239.396 215.766,238.988 216.174 C 238.690 216.472,232.751 216.533,204.375 216.533 L 170.122 216.533 169.870 215.933 C 169.731 215.603,166.854 200.213,163.477 181.733 C 160.100 163.253,157.163 147.755,156.952 147.293 C 156.294 145.855,155.100 145.263,144.400 141.067 C 134.097 137.027,132.491 136.543,131.200 137.085 M182.533 246.634 C 185.669 248.073,186.935 251.466,185.493 254.565 C 183.137 259.624,175.591 258.770,174.420 253.312 C 173.409 248.594,178.203 244.648,182.533 246.634 M230.815 246.636 C 234.052 248.106,235.303 252.311,233.363 255.200 C 230.701 259.164,224.966 258.756,223.000 254.464 C 220.754 249.557,225.900 244.404,230.815 246.636 " stroke="none" fill="#f8f9f9" fill-rule="evenodd"></path><path id="path1" d="M165.733 74.580 C 128.843 75.664,96.249 97.862,81.790 131.750 C 78.470 139.534,76.717 146.031,74.889 157.333 C 74.647 158.830,74.524 173.232,74.402 214.533 C 74.222 275.548,74.359 270.908,72.508 278.377 C 66.296 303.443,44.435 322.841,19.200 325.680 C 18.687 325.738,67.887 325.769,128.533 325.749 L 238.800 325.713 242.533 325.143 C 287.031 318.355,318.401 286.780,325.005 242.133 C 325.364 239.706,325.442 232.165,325.593 185.467 L 325.766 131.600 326.372 128.000 C 331.186 99.409,352.897 78.293,381.067 74.805 C 383.546 74.497,175.914 74.281,165.733 74.580 M144.440 140.702 C 155.218 144.931,156.484 145.550,157.202 146.938 C 157.423 147.365,160.363 162.749,163.735 181.124 C 167.107 199.499,169.935 214.863,170.021 215.267 L 170.176 216.000 204.543 216.000 L 238.910 216.000 239.604 213.800 C 239.985 212.590,243.423 201.842,247.243 189.916 C 251.063 177.990,254.138 168.183,254.077 168.122 C 254.016 168.061,236.144 167.241,214.360 166.300 C 170.108 164.388,173.322 164.672,172.012 162.553 C 170.360 159.880,171.831 156.139,174.748 155.592 C 175.760 155.402,256.708 158.774,260.190 159.151 C 263.563 159.517,265.379 161.423,265.001 164.198 C 264.884 165.056,247.946 218.324,246.767 221.544 C 246.257 222.935,245.286 224.131,244.168 224.743 C 243.394 225.167,240.887 225.205,209.828 225.272 L 176.322 225.343 175.375 227.938 C 174.854 229.366,174.006 231.703,173.492 233.133 L 172.556 235.733 207.771 235.733 C 246.747 235.733,244.108 235.614,245.405 237.433 C 247.536 240.420,245.228 243.465,240.834 243.466 L 238.602 243.467 239.034 244.067 C 245.478 253.011,239.223 265.333,228.239 265.333 C 217.942 265.333,211.480 253.299,217.207 244.789 L 218.097 243.467 204.235 243.467 L 190.373 243.467 191.022 244.333 C 197.309 252.733,190.872 265.333,180.295 265.333 C 169.758 265.333,163.247 253.404,169.066 244.760 L 169.846 243.600 167.767 243.459 C 162.546 243.106,162.246 241.577,165.573 232.282 C 166.908 228.554,168.000 225.465,168.000 225.418 C 168.000 225.372,167.610 225.333,167.133 225.332 C 165.067 225.328,163.081 224.242,162.269 222.671 C 162.061 222.268,159.066 206.532,155.614 187.703 C 152.162 168.873,149.281 153.227,149.211 152.933 C 149.111 152.509,147.224 151.673,139.943 148.831 C 134.914 146.868,130.397 144.962,129.905 144.596 C 127.276 142.640,127.884 138.049,130.933 136.833 C 132.614 136.163,133.559 136.433,144.440 140.702 M178.133 246.810 C 173.658 248.820,173.443 254.846,177.771 256.963 C 182.686 259.368,187.746 253.975,184.988 249.270 C 183.631 246.953,180.399 245.793,178.133 246.810 M225.901 247.099 C 220.944 249.570,222.349 257.087,227.854 257.543 C 232.755 257.950,235.774 252.236,232.611 248.541 C 230.755 246.373,228.382 245.863,225.901 247.099 " stroke="none" fill="#0ca444" fill-rule="evenodd"></path><path id="path2" d="M161.867 74.307 C 151.842 75.253,145.396 76.571,137.467 79.295 C 105.205 90.379,81.192 118.484,75.325 152.025 C 73.982 159.705,74.047 156.879,73.876 215.600 C 73.703 274.878,73.794 271.086,72.390 277.228 C 66.194 304.324,40.560 325.584,14.067 325.599 C 12.491 325.599,11.467 325.706,11.467 325.870 C 11.467 326.379,238.736 326.061,242.133 325.548 C 250.305 324.312,255.137 323.155,262.022 320.782 C 295.125 309.375,319.860 279.489,324.910 244.800 C 325.945 237.684,325.949 237.476,326.123 183.200 C 326.278 134.303,326.330 129.795,326.755 127.467 C 331.283 102.682,347.864 84.028,371.694 76.910 C 373.402 76.400,374.320 76.057,373.733 76.148 C 373.147 76.239,371.107 76.828,369.200 77.456 C 346.360 84.982,330.455 103.752,326.372 128.000 L 325.766 131.600 325.593 185.467 C 325.442 232.165,325.364 239.706,325.005 242.133 C 318.401 286.780,287.031 318.355,242.533 325.143 L 238.800 325.713 128.533 325.749 C 67.887 325.769,18.687 325.738,19.200 325.680 C 44.435 322.841,66.296 303.443,72.508 278.377 C 74.359 270.908,74.222 275.548,74.402 214.533 C 74.524 173.232,74.647 158.830,74.889 157.333 C 76.717 146.031,78.470 139.534,81.790 131.750 C 94.499 101.963,121.506 80.829,153.348 75.753 C 161.290 74.487,156.589 74.533,276.041 74.533 C 338.031 74.533,388.693 74.443,388.625 74.333 C 388.509 74.145,163.861 74.119,161.867 74.307 M381.533 74.855 C 381.863 74.918,382.403 74.918,382.733 74.855 C 383.063 74.791,382.793 74.739,382.133 74.739 C 381.473 74.739,381.203 74.791,381.533 74.855 M378.267 75.214 C 377.741 75.356,378.015 75.380,379.067 75.282 C 379.947 75.200,380.717 75.088,380.778 75.033 C 380.976 74.855,379.089 74.990,378.267 75.214 M375.467 75.733 C 374.570 76.020,375.539 76.020,376.667 75.733 C 377.385 75.550,377.399 75.529,376.800 75.525 C 376.433 75.522,375.833 75.616,375.467 75.733 M197.133 156.450 C 197.390 156.518,197.810 156.518,198.067 156.450 C 198.323 156.383,198.113 156.329,197.600 156.329 C 197.087 156.329,196.877 156.383,197.133 156.450 M203.267 156.717 C 203.523 156.784,203.943 156.784,204.200 156.717 C 204.457 156.650,204.247 156.595,203.733 156.595 C 203.220 156.595,203.010 156.650,203.267 156.717 M240.333 158.317 C 240.590 158.384,241.010 158.384,241.267 158.317 C 241.523 158.250,241.313 158.195,240.800 158.195 C 240.287 158.195,240.077 158.250,240.333 158.317 M166.333 225.255 C 166.663 225.318,167.203 225.318,167.533 225.255 C 167.863 225.191,167.593 225.139,166.933 225.139 C 166.273 225.139,166.003 225.191,166.333 225.255 M192.846 225.267 C 201.891 225.306,216.771 225.306,225.913 225.267 C 235.054 225.228,227.653 225.196,209.467 225.196 C 191.280 225.196,183.801 225.228,192.846 225.267 M214.995 252.267 C 214.995 252.780,215.050 252.990,215.117 252.733 C 215.184 252.477,215.184 252.057,215.117 251.800 C 215.050 251.543,214.995 251.753,214.995 252.267 " stroke="none" fill="#174949" fill-rule="evenodd"></path><path id="path3" d="M132.200 136.722 C 132.530 136.785,133.070 136.785,133.400 136.722 C 133.730 136.658,133.460 136.606,132.800 136.606 C 132.140 136.606,131.870 136.658,132.200 136.722 M175.661 155.659 C 176.134 155.718,176.974 155.719,177.527 155.661 C 178.081 155.604,177.693 155.555,176.667 155.554 C 175.640 155.553,175.187 155.600,175.661 155.659 M181.794 155.926 C 182.267 155.985,183.107 155.986,183.661 155.928 C 184.214 155.870,183.827 155.822,182.800 155.821 C 181.773 155.820,181.321 155.867,181.794 155.926 M187.927 156.192 C 188.401 156.251,189.241 156.252,189.794 156.195 C 190.347 156.137,189.960 156.089,188.933 156.088 C 187.907 156.086,187.454 156.134,187.927 156.192 M194.061 156.459 C 194.534 156.518,195.374 156.519,195.927 156.461 C 196.481 156.404,196.093 156.355,195.067 156.354 C 194.040 156.353,193.587 156.400,194.061 156.459 M200.194 156.726 C 200.667 156.785,201.507 156.786,202.061 156.728 C 202.614 156.670,202.227 156.622,201.200 156.621 C 200.173 156.620,199.721 156.667,200.194 156.726 M206.594 156.992 C 207.067 157.051,207.907 157.052,208.461 156.995 C 209.014 156.937,208.627 156.889,207.600 156.888 C 206.573 156.886,206.121 156.934,206.594 156.992 M212.727 157.259 C 213.201 157.318,214.041 157.319,214.594 157.261 C 215.147 157.204,214.760 157.155,213.733 157.154 C 212.707 157.153,212.254 157.200,212.727 157.259 M218.861 157.526 C 219.334 157.585,220.174 157.586,220.727 157.528 C 221.281 157.470,220.893 157.422,219.867 157.421 C 218.840 157.420,218.387 157.467,218.861 157.526 M224.994 157.792 C 225.467 157.851,226.307 157.852,226.861 157.795 C 227.414 157.737,227.027 157.689,226.000 157.688 C 224.973 157.686,224.521 157.734,224.994 157.792 M231.127 158.059 C 231.601 158.118,232.441 158.119,232.994 158.061 C 233.547 158.004,233.160 157.955,232.133 157.954 C 231.107 157.953,230.654 158.000,231.127 158.059 M237.261 158.326 C 237.734 158.385,238.574 158.386,239.127 158.328 C 239.681 158.270,239.293 158.222,238.267 158.221 C 237.240 158.220,236.787 158.267,237.261 158.326 M243.661 158.592 C 244.134 158.651,244.974 158.652,245.527 158.595 C 246.081 158.537,245.693 158.489,244.667 158.488 C 243.640 158.486,243.187 158.534,243.661 158.592 M249.794 158.859 C 250.267 158.918,251.107 158.919,251.661 158.861 C 252.214 158.804,251.827 158.755,250.800 158.754 C 249.773 158.753,249.321 158.800,249.794 158.859 M255.927 159.126 C 256.401 159.185,257.241 159.186,257.794 159.128 C 258.347 159.070,257.960 159.022,256.933 159.021 C 255.907 159.020,255.454 159.067,255.927 159.126 M264.867 163.600 C 264.870 164.187,264.925 164.395,264.989 164.064 C 265.052 163.732,265.050 163.252,264.983 162.997 C 264.916 162.742,264.864 163.013,264.867 163.600 M178.200 164.724 C 178.603 164.785,179.263 164.785,179.667 164.724 C 180.070 164.663,179.740 164.613,178.933 164.613 C 178.127 164.613,177.797 164.663,178.200 164.724 M184.333 164.991 C 184.737 165.052,185.397 165.052,185.800 164.991 C 186.203 164.930,185.873 164.880,185.067 164.880 C 184.260 164.880,183.930 164.930,184.333 164.991 M190.467 165.258 C 190.870 165.319,191.530 165.319,191.933 165.258 C 192.337 165.197,192.007 165.147,191.200 165.147 C 190.393 165.147,190.063 165.197,190.467 165.258 M196.738 165.527 C 197.217 165.586,197.937 165.585,198.338 165.524 C 198.739 165.463,198.347 165.414,197.467 165.416 C 196.587 165.417,196.259 165.467,196.738 165.527 M203.000 165.791 C 203.403 165.852,204.063 165.852,204.467 165.791 C 204.870 165.730,204.540 165.680,203.733 165.680 C 202.927 165.680,202.597 165.730,203.000 165.791 M209.133 166.058 C 209.537 166.119,210.197 166.119,210.600 166.058 C 211.003 165.997,210.673 165.947,209.867 165.947 C 209.060 165.947,208.730 165.997,209.133 166.058 M215.267 166.324 C 215.670 166.385,216.330 166.385,216.733 166.324 C 217.137 166.263,216.807 166.213,216.000 166.213 C 215.193 166.213,214.863 166.263,215.267 166.324 M221.400 166.591 C 221.803 166.652,222.463 166.652,222.867 166.591 C 223.270 166.530,222.940 166.480,222.133 166.480 C 221.327 166.480,220.997 166.530,221.400 166.591 M227.800 166.858 C 228.203 166.919,228.863 166.919,229.267 166.858 C 229.670 166.797,229.340 166.747,228.533 166.747 C 227.727 166.747,227.397 166.797,227.800 166.858 M233.933 167.124 C 234.337 167.185,234.997 167.185,235.400 167.124 C 235.803 167.063,235.473 167.013,234.667 167.013 C 233.860 167.013,233.530 167.063,233.933 167.124 M240.067 167.391 C 240.470 167.452,241.130 167.452,241.533 167.391 C 241.937 167.330,241.607 167.280,240.800 167.280 C 239.993 167.280,239.663 167.330,240.067 167.391 M246.200 167.658 C 246.603 167.719,247.263 167.719,247.667 167.658 C 248.070 167.597,247.740 167.547,246.933 167.547 C 246.127 167.547,245.797 167.597,246.200 167.658 M252.337 167.925 C 252.742 167.986,253.342 167.984,253.670 167.921 C 253.998 167.858,253.667 167.808,252.933 167.810 C 252.200 167.812,251.932 167.863,252.337 167.925 M169.935 215.733 C 170.054 216.170,238.539 216.501,238.972 216.068 C 239.083 215.957,223.677 215.898,204.737 215.935 C 177.319 215.990,170.252 215.936,170.063 215.669 C 169.886 215.419,169.854 215.435,169.935 215.733 M245.183 223.800 L 244.400 224.667 245.267 223.883 C 245.743 223.453,246.133 223.063,246.133 223.017 C 246.133 222.811,245.913 222.992,245.183 223.800 M190.067 235.933 C 199.783 235.972,215.683 235.972,225.400 235.933 C 235.117 235.895,227.167 235.863,207.733 235.863 C 188.300 235.863,180.350 235.895,190.067 235.933 M166.667 243.364 C 168.258 243.564,170.073 243.584,169.959 243.400 C 169.891 243.290,168.972 243.218,167.918 243.240 C 166.863 243.262,166.300 243.318,166.667 243.364 M190.278 243.448 C 190.194 243.585,190.265 243.783,190.437 243.889 C 190.632 244.010,190.678 243.967,190.559 243.775 C 190.416 243.543,193.829 243.467,204.267 243.467 C 214.704 243.467,218.117 243.543,217.975 243.775 C 217.856 243.967,217.901 244.010,218.096 243.889 C 219.058 243.295,217.154 243.200,204.267 243.200 C 196.015 243.200,190.370 243.300,190.278 243.448 M238.574 243.400 C 238.505 243.510,239.188 243.566,240.091 243.525 C 242.852 243.400,243.179 243.282,240.882 243.240 C 239.681 243.218,238.642 243.290,238.574 243.400 M241.395 250.400 C 241.395 250.913,241.450 251.123,241.517 250.867 C 241.584 250.610,241.584 250.190,241.517 249.933 C 241.450 249.677,241.395 249.887,241.395 250.400 M184.117 256.067 L 183.333 256.933 184.200 256.150 C 184.677 255.719,185.067 255.329,185.067 255.283 C 185.067 255.077,184.847 255.259,184.117 256.067 M179.537 257.791 C 179.942 257.853,180.542 257.851,180.870 257.788 C 181.198 257.724,180.867 257.674,180.133 257.676 C 179.400 257.678,179.132 257.730,179.537 257.791 M227.804 257.791 C 228.209 257.853,228.809 257.851,229.137 257.788 C 229.465 257.724,229.133 257.674,228.400 257.676 C 227.667 257.678,227.398 257.730,227.804 257.791 " stroke="none" fill="#5d807d" fill-rule="evenodd"></path><path id="path4" d="M128.329 141.067 C 128.329 141.580,128.383 141.790,128.450 141.533 C 128.518 141.277,128.518 140.857,128.450 140.600 C 128.383 140.343,128.329 140.553,128.329 141.067 M155.067 145.238 C 156.424 146.443,156.925 146.794,156.401 146.175 C 156.110 145.832,155.631 145.427,155.336 145.276 C 155.041 145.125,154.920 145.108,155.067 145.238 M178.200 155.928 C 178.750 155.985,179.650 155.985,180.200 155.928 C 180.750 155.870,180.300 155.823,179.200 155.823 C 178.100 155.823,177.650 155.870,178.200 155.928 M184.333 156.194 C 184.883 156.252,185.783 156.252,186.333 156.194 C 186.883 156.137,186.433 156.090,185.333 156.090 C 184.233 156.090,183.783 156.137,184.333 156.194 M190.467 156.461 C 191.017 156.518,191.917 156.518,192.467 156.461 C 193.017 156.403,192.567 156.356,191.467 156.356 C 190.367 156.356,189.917 156.403,190.467 156.461 M196.600 156.728 C 197.150 156.785,198.050 156.785,198.600 156.728 C 199.150 156.670,198.700 156.623,197.600 156.623 C 196.500 156.623,196.050 156.670,196.600 156.728 M202.874 156.996 C 203.501 157.052,204.461 157.051,205.007 156.994 C 205.553 156.937,205.040 156.890,203.867 156.891 C 202.693 156.892,202.247 156.939,202.874 156.996 M209.133 157.261 C 209.683 157.318,210.583 157.318,211.133 157.261 C 211.683 157.203,211.233 157.156,210.133 157.156 C 209.033 157.156,208.583 157.203,209.133 157.261 M215.267 157.528 C 215.817 157.585,216.717 157.585,217.267 157.528 C 217.817 157.470,217.367 157.423,216.267 157.423 C 215.167 157.423,214.717 157.470,215.267 157.528 M221.400 157.794 C 221.950 157.852,222.850 157.852,223.400 157.794 C 223.950 157.737,223.500 157.690,222.400 157.690 C 221.300 157.690,220.850 157.737,221.400 157.794 M227.533 158.061 C 228.083 158.118,228.983 158.118,229.533 158.061 C 230.083 158.003,229.633 157.956,228.533 157.956 C 227.433 157.956,226.983 158.003,227.533 158.061 M233.667 158.328 C 234.217 158.385,235.117 158.385,235.667 158.328 C 236.217 158.270,235.767 158.223,234.667 158.223 C 233.567 158.223,233.117 158.270,233.667 158.328 M239.940 158.596 C 240.568 158.652,241.528 158.651,242.074 158.594 C 242.620 158.537,242.107 158.490,240.933 158.491 C 239.760 158.492,239.313 158.539,239.940 158.596 M246.200 158.861 C 246.750 158.918,247.650 158.918,248.200 158.861 C 248.750 158.803,248.300 158.756,247.200 158.756 C 246.100 158.756,245.650 158.803,246.200 158.861 M252.333 159.128 C 252.883 159.185,253.783 159.185,254.333 159.128 C 254.883 159.070,254.433 159.023,253.333 159.023 C 252.233 159.023,251.783 159.070,252.333 159.128 M258.333 159.393 C 258.810 159.452,259.590 159.452,260.067 159.393 C 260.543 159.334,260.153 159.285,259.200 159.285 C 258.247 159.285,257.857 159.334,258.333 159.393 M175.933 164.460 C 176.410 164.519,177.190 164.519,177.667 164.460 C 178.143 164.400,177.753 164.352,176.800 164.352 C 175.847 164.352,175.457 164.400,175.933 164.460 M181.267 164.729 C 181.890 164.785,182.910 164.785,183.533 164.729 C 184.157 164.672,183.647 164.627,182.400 164.627 C 181.153 164.627,180.643 164.672,181.267 164.729 M187.541 164.996 C 188.242 165.051,189.322 165.051,189.941 164.995 C 190.560 164.939,189.987 164.894,188.667 164.895 C 187.347 164.895,186.840 164.941,187.541 164.996 M193.675 165.263 C 194.376 165.318,195.456 165.317,196.075 165.262 C 196.694 165.206,196.120 165.161,194.800 165.161 C 193.480 165.162,192.974 165.208,193.675 165.263 M199.933 165.529 C 200.557 165.585,201.577 165.585,202.200 165.529 C 202.823 165.472,202.313 165.427,201.067 165.427 C 199.820 165.427,199.310 165.472,199.933 165.529 M206.208 165.796 C 206.909 165.851,207.989 165.851,208.608 165.795 C 209.227 165.739,208.653 165.694,207.333 165.695 C 206.013 165.695,205.507 165.741,206.208 165.796 M212.341 166.063 C 213.042 166.118,214.122 166.117,214.741 166.062 C 215.360 166.006,214.787 165.961,213.467 165.961 C 212.147 165.962,211.640 166.008,212.341 166.063 M218.475 166.330 C 219.176 166.385,220.256 166.384,220.875 166.328 C 221.494 166.272,220.920 166.227,219.600 166.228 C 218.280 166.229,217.774 166.275,218.475 166.330 M224.608 166.596 C 225.309 166.651,226.389 166.651,227.008 166.595 C 227.627 166.539,227.053 166.494,225.733 166.495 C 224.413 166.495,223.907 166.541,224.608 166.596 M231.008 166.863 C 231.709 166.918,232.789 166.917,233.408 166.862 C 234.027 166.806,233.453 166.761,232.133 166.761 C 230.813 166.762,230.307 166.808,231.008 166.863 M237.141 167.130 C 237.842 167.185,238.922 167.184,239.541 167.128 C 240.160 167.072,239.587 167.027,238.267 167.028 C 236.947 167.029,236.440 167.075,237.141 167.130 M243.275 167.396 C 243.976 167.451,245.056 167.451,245.675 167.395 C 246.294 167.339,245.720 167.294,244.400 167.295 C 243.080 167.295,242.574 167.341,243.275 167.396 M249.408 167.663 C 250.109 167.718,251.189 167.717,251.808 167.662 C 252.427 167.606,251.853 167.561,250.533 167.561 C 249.213 167.562,248.707 167.608,249.408 167.663 M252.152 175.086 C 252.054 175.477,252.025 175.848,252.088 175.911 C 252.151 175.973,252.283 175.705,252.381 175.314 C 252.479 174.923,252.508 174.552,252.445 174.489 C 252.382 174.427,252.250 174.695,252.152 175.086 M250.019 181.752 C 249.921 182.143,249.892 182.514,249.955 182.577 C 250.018 182.640,250.150 182.372,250.248 181.981 C 250.346 181.590,250.375 181.219,250.312 181.156 C 250.249 181.093,250.117 181.362,250.019 181.752 M247.886 188.419 C 247.788 188.810,247.759 189.181,247.822 189.244 C 247.885 189.307,248.016 189.038,248.114 188.648 C 248.212 188.257,248.241 187.886,248.178 187.823 C 248.115 187.760,247.984 188.028,247.886 188.419 M245.486 195.886 C 245.388 196.277,245.359 196.648,245.422 196.711 C 245.485 196.773,245.616 196.505,245.714 196.114 C 245.812 195.723,245.841 195.352,245.778 195.289 C 245.715 195.227,245.584 195.495,245.486 195.886 M243.352 202.552 C 243.254 202.943,243.225 203.314,243.288 203.377 C 243.351 203.440,243.483 203.172,243.581 202.781 C 243.679 202.390,243.708 202.019,243.645 201.956 C 243.582 201.893,243.450 202.162,243.352 202.552 M241.219 209.219 C 241.121 209.610,241.092 209.981,241.155 210.044 C 241.218 210.107,241.350 209.838,241.448 209.448 C 241.546 209.057,241.575 208.686,241.512 208.623 C 241.449 208.560,241.317 208.828,241.219 209.219 M170.094 216.334 C 170.205 216.445,185.709 216.505,204.548 216.468 L 238.800 216.400 204.347 216.267 C 185.397 216.193,169.984 216.224,170.094 216.334 M165.600 224.951 C 166.496 225.151,168.474 225.186,168.359 225.000 C 168.291 224.890,167.552 224.814,166.718 224.831 C 165.883 224.848,165.380 224.902,165.600 224.951 M176.174 225.000 C 176.063 225.181,199.146 225.180,231.200 224.997 C 237.873 224.959,228.250 224.899,209.816 224.864 C 191.381 224.829,176.243 224.890,176.174 225.000 M245.676 239.600 C 245.678 240.333,245.730 240.602,245.791 240.196 C 245.853 239.791,245.851 239.191,245.788 238.863 C 245.724 238.535,245.674 238.867,245.676 239.600 M239.919 246.263 C 240.163 246.775,240.410 247.146,240.467 247.088 C 240.589 246.966,239.780 245.333,239.597 245.333 C 239.530 245.333,239.675 245.752,239.919 246.263 M176.311 247.667 L 175.310 248.667 176.255 247.867 C 176.775 247.428,177.314 246.978,177.453 246.867 C 177.593 246.757,177.618 246.667,177.510 246.667 C 177.401 246.667,176.862 247.117,176.311 247.667 M231.067 246.835 C 231.213 246.963,231.813 247.488,232.399 248.001 L 233.466 248.933 232.666 248.044 C 232.226 247.554,231.627 247.030,231.333 246.878 C 231.040 246.726,230.920 246.706,231.067 246.835 M193.154 252.133 C 193.155 253.160,193.204 253.547,193.261 252.994 C 193.319 252.441,193.318 251.601,193.259 251.127 C 193.200 250.654,193.153 251.107,193.154 252.133 M215.288 252.133 C 215.289 253.160,215.337 253.547,215.395 252.994 C 215.452 252.441,215.451 251.601,215.392 251.127 C 215.334 250.654,215.286 251.107,215.288 252.133 M185.947 252.000 C 185.947 252.807,185.997 253.137,186.058 252.733 C 186.119 252.330,186.119 251.670,186.058 251.267 C 185.997 250.863,185.947 251.193,185.947 252.000 M222.476 252.133 C 222.478 252.867,222.530 253.135,222.591 252.730 C 222.653 252.324,222.651 251.724,222.588 251.396 C 222.524 251.068,222.474 251.400,222.476 252.133 M234.201 252.133 C 234.204 252.720,234.258 252.929,234.322 252.597 C 234.386 252.265,234.383 251.785,234.317 251.530 C 234.250 251.275,234.198 251.547,234.201 252.133 M241.406 252.267 C 241.406 252.927,241.458 253.197,241.522 252.867 C 241.585 252.537,241.585 251.997,241.522 251.667 C 241.458 251.337,241.406 251.607,241.406 252.267 M167.001 252.400 C 167.004 252.987,167.058 253.195,167.122 252.864 C 167.186 252.532,167.183 252.052,167.117 251.797 C 167.050 251.542,166.998 251.813,167.001 252.400 M233.446 254.570 C 233.141 255.196,232.991 255.646,233.114 255.571 C 233.431 255.375,234.182 253.870,234.083 253.631 C 234.037 253.521,233.750 253.944,233.446 254.570 M174.667 254.326 C 174.667 254.481,174.914 254.891,175.216 255.237 L 175.765 255.867 175.297 255.067 C 174.680 254.014,174.667 253.998,174.667 254.326 M223.409 255.336 C 223.560 255.631,223.965 256.110,224.309 256.401 C 224.911 256.911,224.910 256.901,224.271 256.131 C 223.209 254.852,223.119 254.770,223.409 255.336 M168.000 256.902 C 168.000 257.188,168.793 258.667,168.947 258.667 C 169.020 258.667,168.882 258.277,168.640 257.800 C 168.145 256.827,168.000 256.624,168.000 256.902 M239.600 258.400 C 239.372 258.840,239.246 259.200,239.320 259.200 C 239.393 259.200,239.639 258.840,239.867 258.400 C 240.094 257.960,240.220 257.600,240.147 257.600 C 240.074 257.600,239.828 257.960,239.600 258.400 M217.309 259.155 C 217.453 259.424,217.780 259.814,218.036 260.022 C 218.324 260.256,218.260 260.070,217.867 259.533 C 217.167 258.577,216.904 258.399,217.309 259.155 M189.183 261.400 L 188.400 262.267 189.267 261.483 C 189.743 261.053,190.133 260.663,190.133 260.617 C 190.133 260.411,189.913 260.592,189.183 261.400 M218.400 260.617 C 218.400 260.663,218.790 261.053,219.267 261.483 L 220.133 262.267 219.350 261.400 C 218.620 260.592,218.400 260.411,218.400 260.617 M187.212 262.833 C 185.958 263.724,185.847 263.879,186.819 263.385 C 187.270 263.156,187.795 262.781,187.985 262.551 C 188.440 262.003,188.318 262.048,187.212 262.833 M221.333 263.053 C 221.333 263.126,221.693 263.372,222.133 263.600 C 222.573 263.828,222.933 263.954,222.933 263.880 C 222.933 263.807,222.573 263.561,222.133 263.333 C 221.693 263.106,221.333 262.980,221.333 263.053 M173.600 263.331 C 173.600 263.513,175.233 264.323,175.355 264.201 C 175.413 264.143,175.041 263.896,174.530 263.652 C 174.018 263.408,173.600 263.264,173.600 263.331 M233.867 263.733 C 233.353 264.014,233.029 264.249,233.147 264.255 C 233.429 264.270,234.933 263.488,234.933 263.326 C 234.933 263.152,234.918 263.158,233.867 263.733 M230.533 264.800 C 229.807 264.985,229.795 265.005,230.400 265.016 C 230.767 265.023,231.307 264.926,231.600 264.800 C 232.258 264.517,231.644 264.517,230.533 264.800 " stroke="none" fill="#8ca4a4" fill-rule="evenodd"></path></g></svg>