<svg id="svg" version="1.1" xmlns="http://www.w3.org/2000/svg" xmlns:xlink="http://www.w3.org/1999/xlink" width="400" height="400" viewBox="0, 0, 400,400"><g id="svgg"><path id="path0" d="M131.200 137.085 C 128.385 138.268,127.654 141.817,129.769 144.035 C 130.246 144.534,133.162 145.802,139.888 148.435 C 145.606 150.673,149.386 152.291,149.458 152.533 C 149.524 152.753,152.350 168.053,155.738 186.533 C 159.127 205.013,162.016 220.660,162.159 221.303 C 162.665 223.582,164.219 224.770,166.718 224.789 C 168.749 224.804,168.799 224.306,165.954 232.257 C 163.245 239.828,163.168 240.276,164.318 241.739 C 165.130 242.770,166.367 243.200,168.525 243.200 C 170.641 243.200,170.632 243.192,169.764 244.351 C 162.270 254.350,172.518 268.355,184.350 264.284 C 192.232 261.572,195.628 251.845,191.062 245.060 C 190.551 244.301,190.133 243.572,190.133 243.440 C 190.133 243.301,196.075 243.200,204.267 243.200 C 212.459 243.200,218.400 243.301,218.400 243.440 C 218.400 243.572,217.983 244.300,217.473 245.058 C 213.472 251.003,215.656 259.746,222.033 263.310 C 233.860 269.920,246.616 256.018,239.046 244.769 C 238.544 244.023,238.133 243.365,238.133 243.307 C 238.133 243.248,239.157 243.200,240.409 243.200 C 244.153 243.200,245.600 242.194,245.600 239.592 C 245.600 237.898,244.719 236.758,243.051 236.295 C 242.315 236.090,231.563 236.003,207.133 236.001 C 186.240 236.001,172.267 235.902,172.267 235.756 C 172.267 235.428,175.648 225.992,176.004 225.326 C 176.282 224.807,176.705 224.800,209.753 224.800 C 247.588 224.800,244.694 224.966,245.834 222.730 C 246.445 221.530,264.488 165.332,264.689 164.000 C 264.894 162.642,263.896 160.828,262.533 160.085 C 261.566 159.557,195.309 156.325,177.333 155.928 C 172.630 155.825,170.290 158.568,172.099 162.066 C 173.303 164.394,169.059 164.008,215.145 165.984 C 236.748 166.910,254.485 167.729,254.559 167.804 C 254.768 168.013,239.396 215.766,238.988 216.174 C 238.690 216.472,232.751 216.533,204.375 216.533 L 170.122 216.533 169.870 215.933 C 169.731 215.603,166.854 200.213,163.477 181.733 C 160.100 163.253,157.163 147.755,156.952 147.293 C 156.294 145.855,155.100 145.263,144.400 141.067 C 134.097 137.027,132.491 136.543,131.200 137.085 M182.533 246.634 C 185.669 248.073,186.935 251.466,185.493 254.565 C 183.137 259.624,175.591 258.770,174.420 253.312 C 173.409 248.594,178.203 244.648,182.533 246.634 M230.815 246.636 C 234.052 248.106,235.303 252.311,233.363 255.200 C 230.701 259.164,224.966 258.756,223.000 254.464 C 220.754 249.557,225.900 244.404,230.815 246.636 " stroke="none" fill="#f8f9f9" fill-rule="evenodd"></path><path id="path1" d="M165.733 74.580 C 128.843 75.664,96.249 97.862,81.790 131.750 C 78.470 139.534,76.717 146.031,74.889 157.333 C 74.647 158.830,74.524 173.232,74.402 214.533 C 74.222 275.548,74.359 270.908,72.508 278.377 C 66.296 303.443,44.435 322.841,19.200 325.680 C 18.687 325.738,67.887 325.769,128.533 325.749 L 238.800 325.713 242.533 325.143 C 287.031 318.355,318.401 286.780,325.005 242.133 C 325.364 239.706,325.442 232.165,325.593 185.467 L 325.766 131.600 326.372 128.000 C 331.186 99.409,352.897 78.293,381.067 74.805 C 383.546 74.497,175.914 74.281,165.733 74.580 M134.893 136.961 C 135.429 137.195,136.107 137.479,136.400 137.592 C 136.693 137.704,137.233 137.920,137.600 138.072 C 138.253 138.342,141.477 139.600,142.533 139.995 C 142.827 140.105,143.427 140.347,143.867 140.533 C 144.307 140.719,144.907 140.964,145.200 141.076 C 145.493 141.189,146.573 141.607,147.600 142.005 C 148.627 142.403,149.707 142.819,150.000 142.929 C 150.293 143.039,150.863 143.265,151.267 143.431 C 152.480 143.931,153.153 144.195,154.133 144.557 C 156.161 145.304,157.316 146.629,157.718 148.667 C 157.805 149.107,157.936 149.767,158.009 150.133 C 158.083 150.500,158.211 151.205,158.293 151.700 C 158.376 152.196,158.495 152.856,158.558 153.167 C 158.621 153.479,158.735 154.093,158.812 154.533 C 158.889 154.973,159.002 155.513,159.063 155.733 C 159.124 155.953,159.245 156.673,159.333 157.333 C 159.421 157.993,159.543 158.713,159.604 158.933 C 159.665 159.153,159.781 159.753,159.862 160.267 C 159.943 160.780,160.069 161.500,160.142 161.867 C 160.216 162.233,160.336 162.833,160.409 163.200 C 160.483 163.567,160.611 164.272,160.693 164.767 C 160.776 165.262,160.895 165.922,160.958 166.234 C 161.021 166.545,161.135 167.160,161.212 167.600 C 161.289 168.040,161.402 168.580,161.463 168.800 C 161.524 169.020,161.645 169.740,161.733 170.400 C 161.821 171.060,161.943 171.780,162.004 172.000 C 162.065 172.220,162.181 172.820,162.262 173.333 C 162.343 173.847,162.469 174.567,162.542 174.933 C 162.616 175.300,162.736 175.900,162.809 176.267 C 162.883 176.633,163.011 177.339,163.093 177.834 C 163.176 178.329,163.295 178.989,163.358 179.300 C 163.421 179.612,163.535 180.227,163.612 180.667 C 163.689 181.107,163.802 181.647,163.863 181.867 C 163.924 182.087,164.045 182.807,164.133 183.467 C 164.221 184.127,164.343 184.847,164.404 185.067 C 164.465 185.287,164.581 185.887,164.662 186.400 C 164.743 186.913,164.869 187.633,164.942 188.000 C 165.016 188.367,165.136 188.967,165.209 189.333 C 165.283 189.700,165.411 190.405,165.493 190.900 C 165.576 191.396,165.695 192.056,165.758 192.367 C 165.821 192.679,165.935 193.293,166.012 193.733 C 166.089 194.173,166.202 194.713,166.263 194.933 C 166.324 195.153,166.445 195.873,166.533 196.533 C 166.621 197.193,166.743 197.913,166.804 198.133 C 166.865 198.353,166.981 198.953,167.062 199.467 C 167.143 199.980,167.269 200.700,167.342 201.067 C 167.635 202.532,167.744 203.098,167.869 203.800 C 167.941 204.203,168.059 204.863,168.131 205.267 C 168.202 205.670,168.308 206.240,168.366 206.533 C 168.423 206.827,168.568 207.607,168.686 208.267 C 168.805 208.927,168.915 209.527,168.931 209.600 C 168.946 209.673,169.065 210.333,169.193 211.067 C 169.322 211.800,169.442 212.460,169.460 212.533 C 169.534 212.834,169.962 215.353,169.980 215.600 C 169.993 215.776,181.697 215.867,204.518 215.867 L 239.036 215.867 239.550 214.133 C 239.833 213.180,240.533 211.020,241.106 209.333 C 241.679 207.647,242.206 205.944,242.276 205.549 C 242.347 205.154,242.880 203.504,243.461 201.882 C 244.042 200.260,244.464 198.933,244.398 198.933 C 244.333 198.933,244.811 197.433,245.462 195.600 C 246.112 193.767,246.593 192.267,246.531 192.267 C 246.468 192.267,247.009 190.587,247.733 188.533 C 248.457 186.480,248.996 184.800,248.931 184.800 C 248.866 184.800,249.344 183.300,249.995 181.467 C 250.645 179.633,251.124 178.133,251.060 178.133 C 250.995 178.133,251.423 176.786,252.010 175.139 C 252.598 173.492,253.130 171.860,253.193 171.514 C 253.256 171.167,253.505 170.287,253.747 169.558 C 254.321 167.830,255.030 167.995,245.333 167.599 C 243.353 167.519,240.533 167.398,239.067 167.332 C 237.600 167.266,234.780 167.146,232.800 167.066 C 230.820 166.985,227.940 166.864,226.400 166.796 C 220.023 166.514,217.052 166.383,214.400 166.266 C 212.860 166.198,210.040 166.078,208.133 166.000 C 206.227 165.922,203.407 165.801,201.867 165.732 C 200.327 165.663,197.567 165.543,195.733 165.466 C 193.900 165.388,191.140 165.269,189.600 165.202 C 188.060 165.134,185.120 165.012,183.067 164.931 C 173.752 164.565,172.995 164.381,171.927 162.222 C 171.576 161.513,171.307 160.633,171.329 160.267 C 171.350 159.900,171.390 159.279,171.417 158.887 C 171.482 157.948,172.606 156.643,173.933 155.966 C 175.048 155.397,175.782 155.391,184.933 155.867 C 186.107 155.928,188.807 156.046,190.933 156.129 C 193.060 156.212,196.060 156.335,197.600 156.402 C 199.140 156.469,201.900 156.588,203.733 156.667 C 205.567 156.745,208.327 156.865,209.867 156.933 C 211.407 157.001,214.167 157.121,216.000 157.200 C 217.833 157.279,220.653 157.402,222.267 157.474 C 229.328 157.790,230.981 157.862,234.000 157.990 C 235.760 158.064,238.820 158.189,240.800 158.269 C 242.780 158.349,245.480 158.467,246.800 158.531 C 248.120 158.595,250.940 158.718,253.067 158.805 C 262.030 159.168,262.324 159.213,263.578 160.431 C 265.297 162.101,265.388 163.631,264.013 167.733 C 263.594 168.980,262.625 171.980,261.859 174.400 C 261.092 176.820,260.073 180.000,259.593 181.467 C 259.113 182.933,258.155 185.933,257.463 188.133 C 256.772 190.333,255.752 193.513,255.198 195.200 C 254.643 196.887,253.621 200.067,252.927 202.267 C 252.233 204.467,251.213 207.647,250.659 209.333 C 250.105 211.020,249.087 214.200,248.396 216.400 C 246.583 222.176,246.419 222.604,245.675 223.487 C 244.247 225.185,246.725 225.075,209.872 225.069 C 185.495 225.064,176.267 225.144,176.267 225.358 C 176.267 225.520,176.093 226.031,175.881 226.493 C 175.453 227.425,174.591 229.824,173.952 231.867 C 173.722 232.600,173.441 233.320,173.328 233.467 C 173.215 233.613,172.999 234.183,172.849 234.733 L 172.576 235.733 207.621 235.767 C 226.896 235.785,242.787 235.830,242.933 235.867 C 243.080 235.903,243.362 235.948,243.560 235.967 C 244.861 236.087,246.257 238.497,246.005 240.187 C 245.672 242.417,243.951 243.467,240.627 243.467 C 238.420 243.467,238.432 243.456,239.302 244.618 C 240.148 245.749,240.833 247.126,241.117 248.267 C 241.244 248.780,241.408 249.440,241.480 249.733 C 242.020 251.933,241.309 256.233,240.049 258.390 C 235.029 266.981,223.924 267.653,217.520 259.754 C 215.799 257.633,214.662 252.346,215.299 249.432 C 215.729 247.467,216.690 245.307,217.597 244.267 L 218.179 243.600 211.223 243.529 C 207.397 243.490,201.137 243.490,197.311 243.529 L 190.356 243.600 191.014 244.366 C 196.476 250.719,192.537 262.128,183.991 264.710 C 172.041 268.319,161.912 254.117,169.411 244.267 L 169.918 243.600 167.959 243.439 C 163.073 243.039,162.123 240.360,164.803 234.533 C 165.061 233.972,165.893 231.625,166.552 229.600 C 166.767 228.940,167.108 228.040,167.310 227.600 C 167.512 227.160,167.758 226.414,167.858 225.941 L 168.039 225.083 166.592 225.121 C 163.681 225.197,161.988 223.362,161.480 219.580 C 161.383 218.858,161.199 217.787,161.070 217.200 C 160.941 216.613,160.699 215.353,160.531 214.400 C 160.364 213.447,160.117 212.127,159.982 211.467 C 159.848 210.807,159.673 209.847,159.593 209.333 C 159.513 208.820,159.399 208.220,159.339 208.000 C 159.280 207.780,159.164 207.120,159.083 206.533 C 159.001 205.947,158.825 204.927,158.691 204.267 C 158.447 203.068,158.188 201.671,157.603 198.400 C 157.433 197.447,157.182 196.127,157.046 195.467 C 156.910 194.807,156.732 193.787,156.651 193.200 C 156.569 192.613,156.454 191.953,156.394 191.733 C 156.335 191.513,156.220 190.913,156.140 190.400 C 156.060 189.887,155.885 188.927,155.751 188.267 C 155.617 187.607,155.369 186.287,155.200 185.333 C 155.031 184.380,154.782 183.060,154.646 182.400 C 154.510 181.740,154.332 180.720,154.251 180.133 C 154.169 179.547,154.054 178.887,153.994 178.667 C 153.935 178.447,153.820 177.847,153.740 177.333 C 153.660 176.820,153.485 175.860,153.351 175.200 C 153.217 174.540,152.969 173.220,152.800 172.267 C 152.631 171.313,152.382 169.993,152.246 169.333 C 152.110 168.673,151.932 167.653,151.851 167.067 C 151.769 166.480,151.654 165.820,151.594 165.600 C 151.535 165.380,151.420 164.780,151.340 164.267 C 151.260 163.753,151.085 162.793,150.951 162.133 C 150.817 161.473,150.569 160.153,150.400 159.200 C 150.231 158.247,149.983 156.927,149.849 156.267 C 149.715 155.607,149.540 154.647,149.460 154.133 C 149.380 153.620,149.258 153.020,149.190 152.800 C 149.121 152.580,147.596 151.818,145.799 151.106 C 144.003 150.395,142.293 149.717,142.000 149.600 C 141.707 149.483,140.027 148.821,138.267 148.130 C 136.507 147.439,134.827 146.777,134.533 146.658 C 134.240 146.539,133.247 146.162,132.327 145.821 C 129.560 144.795,128.267 143.246,128.267 140.962 C 128.267 137.647,131.714 135.566,134.893 136.961 M178.267 246.682 C 176.322 247.251,174.589 249.847,174.610 252.161 C 174.662 257.981,182.535 259.659,185.192 254.415 C 187.419 250.021,183.149 245.254,178.267 246.682 M226.133 246.875 C 222.621 248.534,221.634 253.441,224.316 255.909 C 228.144 259.432,233.929 257.060,233.929 251.968 C 233.929 247.973,229.683 245.198,226.133 246.875 " stroke="none" fill="#0c6c4c" fill-rule="evenodd"></path><path id="path2" d="M132.200 136.722 C 132.530 136.785,133.070 136.785,133.400 136.722 C 133.730 136.658,133.460 136.606,132.800 136.606 C 132.140 136.606,131.870 136.658,132.200 136.722 M175.667 155.660 C 176.143 155.719,176.923 155.719,177.400 155.660 C 177.877 155.600,177.487 155.552,176.533 155.552 C 175.580 155.552,175.190 155.600,175.667 155.660 M181.800 155.926 C 182.277 155.985,183.057 155.985,183.533 155.926 C 184.010 155.867,183.620 155.819,182.667 155.819 C 181.713 155.819,181.323 155.867,181.800 155.926 M187.933 156.193 C 188.410 156.252,189.190 156.252,189.667 156.193 C 190.143 156.134,189.753 156.085,188.800 156.085 C 187.847 156.085,187.457 156.134,187.933 156.193 M194.061 156.459 C 194.534 156.518,195.374 156.519,195.927 156.461 C 196.481 156.404,196.093 156.355,195.067 156.354 C 194.040 156.353,193.587 156.400,194.061 156.459 M200.194 156.726 C 200.667 156.785,201.507 156.786,202.061 156.728 C 202.614 156.670,202.227 156.622,201.200 156.621 C 200.173 156.620,199.721 156.667,200.194 156.726 M206.600 156.993 C 207.077 157.052,207.857 157.052,208.333 156.993 C 208.810 156.934,208.420 156.885,207.467 156.885 C 206.513 156.885,206.123 156.934,206.600 156.993 M212.733 157.260 C 213.210 157.319,213.990 157.319,214.467 157.260 C 214.943 157.200,214.553 157.152,213.600 157.152 C 212.647 157.152,212.257 157.200,212.733 157.260 M218.867 157.526 C 219.343 157.585,220.123 157.585,220.600 157.526 C 221.077 157.467,220.687 157.419,219.733 157.419 C 218.780 157.419,218.390 157.467,218.867 157.526 M225.000 157.793 C 225.477 157.852,226.257 157.852,226.733 157.793 C 227.210 157.734,226.820 157.685,225.867 157.685 C 224.913 157.685,224.523 157.734,225.000 157.793 M231.133 158.060 C 231.610 158.119,232.390 158.119,232.867 158.060 C 233.343 158.000,232.953 157.952,232.000 157.952 C 231.047 157.952,230.657 158.000,231.133 158.060 M237.261 158.326 C 237.734 158.385,238.574 158.386,239.127 158.328 C 239.681 158.270,239.293 158.222,238.267 158.221 C 237.240 158.220,236.787 158.267,237.261 158.326 M243.667 158.593 C 244.143 158.652,244.923 158.652,245.400 158.593 C 245.877 158.534,245.487 158.485,244.533 158.485 C 243.580 158.485,243.190 158.534,243.667 158.593 M249.800 158.860 C 250.277 158.919,251.057 158.919,251.533 158.860 C 252.010 158.800,251.620 158.752,250.667 158.752 C 249.713 158.752,249.323 158.800,249.800 158.860 M255.933 159.126 C 256.410 159.185,257.190 159.185,257.667 159.126 C 258.143 159.067,257.753 159.019,256.800 159.019 C 255.847 159.019,255.457 159.067,255.933 159.126 M264.862 163.733 C 264.862 164.247,264.917 164.457,264.984 164.200 C 265.051 163.943,265.051 163.523,264.984 163.267 C 264.917 163.010,264.862 163.220,264.862 163.733 M178.200 164.724 C 178.603 164.785,179.263 164.785,179.667 164.724 C 180.070 164.663,179.740 164.613,178.933 164.613 C 178.127 164.613,177.797 164.663,178.200 164.724 M184.333 164.991 C 184.737 165.052,185.397 165.052,185.800 164.991 C 186.203 164.930,185.873 164.880,185.067 164.880 C 184.260 164.880,183.930 164.930,184.333 164.991 M190.737 165.258 C 191.142 165.319,191.742 165.318,192.070 165.254 C 192.398 165.191,192.067 165.141,191.333 165.143 C 190.600 165.145,190.332 165.197,190.737 165.258 M196.870 165.525 C 197.276 165.586,197.876 165.584,198.204 165.521 C 198.532 165.458,198.200 165.408,197.467 165.410 C 196.733 165.412,196.465 165.463,196.870 165.525 M203.000 165.791 C 203.403 165.852,204.063 165.852,204.467 165.791 C 204.870 165.730,204.540 165.680,203.733 165.680 C 202.927 165.680,202.597 165.730,203.000 165.791 M209.404 166.058 C 209.809 166.119,210.409 166.118,210.737 166.054 C 211.065 165.991,210.733 165.941,210.000 165.943 C 209.267 165.945,208.998 165.997,209.404 166.058 M215.537 166.325 C 215.942 166.386,216.542 166.384,216.870 166.321 C 217.198 166.258,216.867 166.208,216.133 166.210 C 215.400 166.212,215.132 166.263,215.537 166.325 M221.670 166.591 C 222.076 166.653,222.676 166.651,223.004 166.588 C 223.332 166.524,223.000 166.474,222.267 166.476 C 221.533 166.478,221.265 166.530,221.670 166.591 M227.800 166.858 C 228.203 166.919,228.863 166.919,229.267 166.858 C 229.670 166.797,229.340 166.747,228.533 166.747 C 227.727 166.747,227.397 166.797,227.800 166.858 M233.933 167.124 C 234.337 167.185,234.997 167.185,235.400 167.124 C 235.803 167.063,235.473 167.013,234.667 167.013 C 233.860 167.013,233.530 167.063,233.933 167.124 M240.337 167.391 C 240.742 167.453,241.342 167.451,241.670 167.388 C 241.998 167.324,241.667 167.274,240.933 167.276 C 240.200 167.278,239.932 167.330,240.337 167.391 M246.470 167.658 C 246.876 167.719,247.476 167.718,247.804 167.654 C 248.132 167.591,247.800 167.541,247.067 167.543 C 246.333 167.545,246.065 167.597,246.470 167.658 M252.467 167.922 C 252.797 167.985,253.337 167.985,253.667 167.922 C 253.997 167.858,253.727 167.806,253.067 167.806 C 252.407 167.806,252.137 167.858,252.467 167.922 M170.041 216.067 C 170.109 216.177,185.631 216.267,204.533 216.267 C 223.436 216.267,238.957 216.177,239.025 216.067 C 239.093 215.957,223.572 215.867,204.533 215.867 C 185.495 215.867,169.973 215.957,170.041 216.067 M245.183 223.800 L 244.400 224.667 245.267 223.883 C 245.743 223.453,246.133 223.063,246.133 223.017 C 246.133 222.811,245.913 222.992,245.183 223.800 M189.913 235.933 C 199.544 235.972,215.384 235.972,225.113 235.933 C 234.841 235.895,226.960 235.863,207.600 235.863 C 188.240 235.863,180.281 235.895,189.913 235.933 M166.800 243.359 C 168.027 243.559,170.074 243.585,169.959 243.400 C 169.891 243.290,169.032 243.216,168.051 243.236 C 167.070 243.256,166.507 243.312,166.800 243.359 M190.278 243.448 C 190.194 243.585,190.265 243.783,190.437 243.889 C 190.632 244.010,190.678 243.967,190.559 243.775 C 190.416 243.543,193.829 243.467,204.267 243.467 C 214.704 243.467,218.117 243.543,217.975 243.775 C 217.856 243.967,217.901 244.010,218.096 243.889 C 219.058 243.295,217.154 243.200,204.267 243.200 C 196.015 243.200,190.370 243.300,190.278 243.448 M238.574 243.400 C 238.505 243.510,239.188 243.566,240.091 243.525 C 242.852 243.400,243.179 243.282,240.882 243.240 C 239.681 243.218,238.642 243.290,238.574 243.400 M184.117 256.067 L 183.333 256.933 184.200 256.150 C 184.677 255.719,185.067 255.329,185.067 255.283 C 185.067 255.077,184.847 255.259,184.117 256.067 M179.537 257.791 C 179.942 257.853,180.542 257.851,180.870 257.788 C 181.198 257.724,180.867 257.674,180.133 257.676 C 179.400 257.678,179.132 257.730,179.537 257.791 M227.804 257.791 C 228.209 257.853,228.809 257.851,229.137 257.788 C 229.465 257.724,229.133 257.674,228.400 257.676 C 227.667 257.678,227.398 257.730,227.804 257.791 " stroke="none" fill="#5c7f7c" fill-rule="evenodd"></path><path id="path3" d="M161.867 74.307 C 151.842 75.253,145.396 76.571,137.467 79.295 C 105.205 90.379,81.192 118.484,75.325 152.025 C 73.982 159.705,74.047 156.879,73.876 215.600 C 73.703 274.878,73.794 271.086,72.390 277.228 C 66.194 304.324,40.560 325.584,14.067 325.599 C 12.491 325.599,11.467 325.706,11.467 325.870 C 11.467 326.379,238.736 326.061,242.133 325.548 C 250.305 324.312,255.137 323.155,262.022 320.782 C 295.125 309.375,319.860 279.489,324.910 244.800 C 325.945 237.684,325.949 237.476,326.123 183.200 C 326.278 134.303,326.330 129.795,326.755 127.467 C 331.283 102.682,347.864 84.028,371.694 76.910 C 373.402 76.400,374.320 76.057,373.733 76.148 C 373.147 76.239,371.107 76.828,369.200 77.456 C 346.360 84.982,330.455 103.752,326.372 128.000 L 325.766 131.600 325.593 185.467 C 325.442 232.165,325.364 239.706,325.005 242.133 C 318.401 286.780,287.031 318.355,242.533 325.143 L 238.800 325.713 128.533 325.749 C 67.887 325.769,18.687 325.738,19.200 325.680 C 44.435 322.841,66.296 303.443,72.508 278.377 C 74.359 270.908,74.222 275.548,74.402 214.533 C 74.524 173.232,74.647 158.830,74.889 157.333 C 76.717 146.031,78.470 139.534,81.790 131.750 C 94.499 101.963,121.506 80.829,153.348 75.753 C 161.290 74.487,156.589 74.533,276.041 74.533 C 338.031 74.533,388.693 74.443,388.625 74.333 C 388.509 74.145,163.861 74.119,161.867 74.307 M381.533 74.855 C 381.863 74.918,382.403 74.918,382.733 74.855 C 383.063 74.791,382.793 74.739,382.133 74.739 C 381.473 74.739,381.203 74.791,381.533 74.855 M378.267 75.214 C 377.741 75.356,378.015 75.380,379.067 75.282 C 379.947 75.200,380.717 75.088,380.778 75.033 C 380.976 74.855,379.089 74.990,378.267 75.214 M375.467 75.733 C 374.570 76.020,375.539 76.020,376.667 75.733 C 377.385 75.550,377.399 75.529,376.800 75.525 C 376.433 75.522,375.833 75.616,375.467 75.733 " stroke="none" fill="#174949" fill-rule="evenodd"></path><path id="path4" d="M128.329 141.067 C 128.329 141.580,128.383 141.790,128.450 141.533 C 128.518 141.277,128.518 140.857,128.450 140.600 C 128.383 140.343,128.329 140.553,128.329 141.067 M155.067 145.238 C 156.424 146.443,156.925 146.794,156.401 146.175 C 156.110 145.832,155.631 145.427,155.336 145.276 C 155.041 145.125,154.920 145.108,155.067 145.238 M178.200 155.928 C 178.750 155.985,179.650 155.985,180.200 155.928 C 180.750 155.870,180.300 155.823,179.200 155.823 C 178.100 155.823,177.650 155.870,178.200 155.928 M184.333 156.194 C 184.883 156.252,185.783 156.252,186.333 156.194 C 186.883 156.137,186.433 156.090,185.333 156.090 C 184.233 156.090,183.783 156.137,184.333 156.194 M190.467 156.461 C 191.017 156.518,191.917 156.518,192.467 156.461 C 193.017 156.403,192.567 156.356,191.467 156.356 C 190.367 156.356,189.917 156.403,190.467 156.461 M196.600 156.728 C 197.150 156.785,198.050 156.785,198.600 156.728 C 199.150 156.670,198.700 156.623,197.600 156.623 C 196.500 156.623,196.050 156.670,196.600 156.728 M202.874 156.996 C 203.501 157.052,204.461 157.051,205.007 156.994 C 205.553 156.937,205.040 156.890,203.867 156.891 C 202.693 156.892,202.247 156.939,202.874 156.996 M209.133 157.261 C 209.683 157.318,210.583 157.318,211.133 157.261 C 211.683 157.203,211.233 157.156,210.133 157.156 C 209.033 157.156,208.583 157.203,209.133 157.261 M215.267 157.528 C 215.817 157.585,216.717 157.585,217.267 157.528 C 217.817 157.470,217.367 157.423,216.267 157.423 C 215.167 157.423,214.717 157.470,215.267 157.528 M221.400 157.794 C 221.950 157.852,222.850 157.852,223.400 157.794 C 223.950 157.737,223.500 157.690,222.400 157.690 C 221.300 157.690,220.850 157.737,221.400 157.794 M227.533 158.061 C 228.083 158.118,228.983 158.118,229.533 158.061 C 230.083 158.003,229.633 157.956,228.533 157.956 C 227.433 157.956,226.983 158.003,227.533 158.061 M233.667 158.328 C 234.217 158.385,235.117 158.385,235.667 158.328 C 236.217 158.270,235.767 158.223,234.667 158.223 C 233.567 158.223,233.117 158.270,233.667 158.328 M239.940 158.596 C 240.568 158.652,241.528 158.651,242.074 158.594 C 242.620 158.537,242.107 158.490,240.933 158.491 C 239.760 158.492,239.313 158.539,239.940 158.596 M246.200 158.861 C 246.750 158.918,247.650 158.918,248.200 158.861 C 248.750 158.803,248.300 158.756,247.200 158.756 C 246.100 158.756,245.650 158.803,246.200 158.861 M252.333 159.128 C 252.883 159.185,253.783 159.185,254.333 159.128 C 254.883 159.070,254.433 159.023,253.333 159.023 C 252.233 159.023,251.783 159.070,252.333 159.128 M258.333 159.393 C 258.810 159.452,259.590 159.452,260.067 159.393 C 260.543 159.334,260.153 159.285,259.200 159.285 C 258.247 159.285,257.857 159.334,258.333 159.393 M175.933 164.460 C 176.410 164.519,177.190 164.519,177.667 164.460 C 178.143 164.400,177.753 164.352,176.800 164.352 C 175.847 164.352,175.457 164.400,175.933 164.460 M181.267 164.729 C 181.890 164.785,182.910 164.785,183.533 164.729 C 184.157 164.672,183.647 164.627,182.400 164.627 C 181.153 164.627,180.643 164.672,181.267 164.729 M187.541 164.996 C 188.242 165.051,189.322 165.051,189.941 164.995 C 190.560 164.939,189.987 164.894,188.667 164.895 C 187.347 164.895,186.840 164.941,187.541 164.996 M193.675 165.263 C 194.376 165.318,195.456 165.317,196.075 165.262 C 196.694 165.206,196.120 165.161,194.800 165.161 C 193.480 165.162,192.974 165.208,193.675 165.263 M199.808 165.530 C 200.509 165.585,201.589 165.584,202.208 165.528 C 202.827 165.472,202.253 165.427,200.933 165.428 C 199.613 165.429,199.107 165.475,199.808 165.530 M206.208 165.796 C 206.909 165.851,207.989 165.851,208.608 165.795 C 209.227 165.739,208.653 165.694,207.333 165.695 C 206.013 165.695,205.507 165.741,206.208 165.796 M212.341 166.063 C 213.042 166.118,214.122 166.117,214.741 166.062 C 215.360 166.006,214.787 165.961,213.467 165.961 C 212.147 165.962,211.640 166.008,212.341 166.063 M218.475 166.330 C 219.176 166.385,220.256 166.384,220.875 166.328 C 221.494 166.272,220.920 166.227,219.600 166.228 C 218.280 166.229,217.774 166.275,218.475 166.330 M224.608 166.596 C 225.309 166.651,226.389 166.651,227.008 166.595 C 227.627 166.539,227.053 166.494,225.733 166.495 C 224.413 166.495,223.907 166.541,224.608 166.596 M231.008 166.863 C 231.709 166.918,232.789 166.917,233.408 166.862 C 234.027 166.806,233.453 166.761,232.133 166.761 C 230.813 166.762,230.307 166.808,231.008 166.863 M237.141 167.130 C 237.842 167.185,238.922 167.184,239.541 167.128 C 240.160 167.072,239.587 167.027,238.267 167.028 C 236.947 167.029,236.440 167.075,237.141 167.130 M243.275 167.396 C 243.976 167.451,245.056 167.451,245.675 167.395 C 246.294 167.339,245.720 167.294,244.400 167.295 C 243.080 167.295,242.574 167.341,243.275 167.396 M249.408 167.663 C 250.109 167.718,251.189 167.717,251.808 167.662 C 252.427 167.606,251.853 167.561,250.533 167.561 C 249.213 167.562,248.707 167.608,249.408 167.663 M252.152 175.086 C 252.054 175.477,252.025 175.848,252.088 175.911 C 252.151 175.973,252.283 175.705,252.381 175.314 C 252.479 174.923,252.508 174.552,252.445 174.489 C 252.382 174.427,252.250 174.695,252.152 175.086 M250.019 181.752 C 249.921 182.143,249.892 182.514,249.955 182.577 C 250.018 182.640,250.150 182.372,250.248 181.981 C 250.346 181.590,250.375 181.219,250.312 181.156 C 250.249 181.093,250.117 181.362,250.019 181.752 M247.886 188.419 C 247.788 188.810,247.759 189.181,247.822 189.244 C 247.885 189.307,248.016 189.038,248.114 188.648 C 248.212 188.257,248.241 187.886,248.178 187.823 C 248.115 187.760,247.984 188.028,247.886 188.419 M245.486 195.886 C 245.388 196.277,245.359 196.648,245.422 196.711 C 245.485 196.773,245.616 196.505,245.714 196.114 C 245.812 195.723,245.841 195.352,245.778 195.289 C 245.715 195.227,245.584 195.495,245.486 195.886 M243.352 202.552 C 243.254 202.943,243.225 203.314,243.288 203.377 C 243.351 203.440,243.483 203.172,243.581 202.781 C 243.679 202.390,243.708 202.019,243.645 201.956 C 243.582 201.893,243.450 202.162,243.352 202.552 M241.219 209.219 C 241.121 209.610,241.092 209.981,241.155 210.044 C 241.218 210.107,241.350 209.838,241.448 209.448 C 241.546 209.057,241.575 208.686,241.512 208.623 C 241.449 208.560,241.317 208.828,241.219 209.219 M170.094 216.334 C 170.205 216.445,185.709 216.505,204.548 216.468 L 238.800 216.400 204.347 216.267 C 185.397 216.193,169.984 216.224,170.094 216.334 M165.600 224.951 C 166.496 225.151,168.474 225.186,168.359 225.000 C 168.291 224.890,167.552 224.814,166.718 224.831 C 165.883 224.848,165.380 224.902,165.600 224.951 M176.174 225.000 C 176.063 225.181,199.146 225.180,231.200 224.997 C 237.873 224.959,228.250 224.899,209.816 224.864 C 191.381 224.829,176.243 224.890,176.174 225.000 M245.676 239.600 C 245.678 240.333,245.730 240.602,245.791 240.196 C 245.853 239.791,245.851 239.191,245.788 238.863 C 245.724 238.535,245.674 238.867,245.676 239.600 M239.919 246.263 C 240.163 246.775,240.410 247.146,240.467 247.088 C 240.589 246.966,239.780 245.333,239.597 245.333 C 239.530 245.333,239.675 245.752,239.919 246.263 M176.311 247.667 L 175.310 248.667 176.255 247.867 C 176.775 247.428,177.314 246.978,177.453 246.867 C 177.593 246.757,177.618 246.667,177.510 246.667 C 177.401 246.667,176.862 247.117,176.311 247.667 M231.067 246.835 C 231.213 246.963,231.813 247.488,232.399 248.001 L 233.466 248.933 232.666 248.044 C 232.226 247.554,231.627 247.030,231.333 246.878 C 231.040 246.726,230.920 246.706,231.067 246.835 M193.154 252.133 C 193.155 253.160,193.204 253.547,193.261 252.994 C 193.319 252.441,193.318 251.601,193.259 251.127 C 193.200 250.654,193.153 251.107,193.154 252.133 M215.288 252.133 C 215.289 253.160,215.337 253.547,215.395 252.994 C 215.452 252.441,215.451 251.601,215.392 251.127 C 215.334 250.654,215.286 251.107,215.288 252.133 M185.947 252.000 C 185.947 252.807,185.997 253.137,186.058 252.733 C 186.119 252.330,186.119 251.670,186.058 251.267 C 185.997 250.863,185.947 251.193,185.947 252.000 M222.476 252.133 C 222.478 252.867,222.530 253.135,222.591 252.730 C 222.653 252.324,222.651 251.724,222.588 251.396 C 222.524 251.068,222.474 251.400,222.476 252.133 M234.201 252.133 C 234.204 252.720,234.258 252.929,234.322 252.597 C 234.386 252.265,234.383 251.785,234.317 251.530 C 234.250 251.275,234.198 251.547,234.201 252.133 M241.406 252.267 C 241.406 252.927,241.458 253.197,241.522 252.867 C 241.585 252.537,241.585 251.997,241.522 251.667 C 241.458 251.337,241.406 251.607,241.406 252.267 M167.001 252.400 C 167.004 252.987,167.058 253.195,167.122 252.864 C 167.186 252.532,167.183 252.052,167.117 251.797 C 167.050 251.542,166.998 251.813,167.001 252.400 M233.446 254.570 C 233.141 255.196,232.991 255.646,233.114 255.571 C 233.431 255.375,234.182 253.870,234.083 253.631 C 234.037 253.521,233.750 253.944,233.446 254.570 M174.667 254.326 C 174.667 254.481,174.914 254.891,175.216 255.237 L 175.765 255.867 175.297 255.067 C 174.680 254.014,174.667 253.998,174.667 254.326 M223.409 255.336 C 223.560 255.631,223.965 256.110,224.309 256.401 C 224.911 256.911,224.910 256.901,224.271 256.131 C 223.209 254.852,223.119 254.770,223.409 255.336 M168.000 256.902 C 168.000 257.188,168.793 258.667,168.947 258.667 C 169.020 258.667,168.882 258.277,168.640 257.800 C 168.145 256.827,168.000 256.624,168.000 256.902 M239.600 258.400 C 239.372 258.840,239.246 259.200,239.320 259.200 C 239.393 259.200,239.639 258.840,239.867 258.400 C 240.094 257.960,240.220 257.600,240.147 257.600 C 240.074 257.600,239.828 257.960,239.600 258.400 M217.309 259.155 C 217.453 259.424,217.780 259.814,218.036 260.022 C 218.324 260.256,218.260 260.070,217.867 259.533 C 217.167 258.577,216.904 258.399,217.309 259.155 M189.319 261.267 L 188.400 262.267 189.400 261.348 C 189.950 260.842,190.400 260.392,190.400 260.348 C 190.400 260.144,190.174 260.336,189.319 261.267 M218.400 260.617 C 218.400 260.663,218.790 261.053,219.267 261.483 L 220.133 262.267 219.350 261.400 C 218.620 260.592,218.400 260.411,218.400 260.617 M187.212 262.833 C 185.958 263.724,185.847 263.879,186.819 263.385 C 187.270 263.156,187.795 262.781,187.985 262.551 C 188.440 262.003,188.318 262.048,187.212 262.833 M221.333 263.053 C 221.333 263.126,221.693 263.372,222.133 263.600 C 222.573 263.828,222.933 263.954,222.933 263.880 C 222.933 263.807,222.573 263.561,222.133 263.333 C 221.693 263.106,221.333 262.980,221.333 263.053 M173.600 263.331 C 173.600 263.513,175.233 264.323,175.355 264.201 C 175.413 264.143,175.041 263.896,174.530 263.652 C 174.018 263.408,173.600 263.264,173.600 263.331 M233.867 263.733 C 233.353 264.014,233.029 264.249,233.147 264.255 C 233.429 264.270,234.933 263.488,234.933 263.326 C 234.933 263.152,234.918 263.158,233.867 263.733 M176.933 264.788 C 177.445 265.019,178.874 265.171,178.644 264.969 C 178.583 264.915,178.053 264.798,177.467 264.708 C 176.723 264.595,176.562 264.619,176.933 264.788 M230.533 264.800 C 229.807 264.985,229.795 265.005,230.400 265.016 C 230.767 265.023,231.307 264.926,231.600 264.800 C 232.258 264.517,231.644 264.517,230.533 264.800 " stroke="none" fill="#8ca4a4" fill-rule="evenodd"></path></g></svg>